<svg width="1200" height="800" viewBox="0 0 1200 800" fill="none" xmlns="http://www.w3.org/2000/svg">
  <defs>
    <linearGradient id="bg" x1="120" y1="120" x2="1080" y2="680" gradientUnits="userSpaceOnUse">
      <stop stop-color="#0F2744"/>
      <stop offset="0.6" stop-color="#1B4D7A"/>
      <stop offset="1" stop-color="#C9A646"/>
    </linearGradient>
  </defs>
  <rect width="1200" height="800" rx="44" fill="#0B1220"/>
  <rect x="56" y="56" width="1088" height="688" rx="40" fill="url(#bg)" opacity="0.92"/>

  <g opacity="0.55">
    <circle cx="600" cy="400" r="170" fill="white" fill-opacity="0.14"/>
    <circle cx="600" cy="400" r="120" fill="white" fill-opacity="0.12"/>
    <circle cx="600" cy="400" r="70" fill="white" fill-opacity="0.10"/>
  </g>

  <g opacity="0.8">
    <path d="M330 380C410 260 510 240 600 400C690 560 790 540 870 420" stroke="white" stroke-opacity="0.55" stroke-width="5" stroke-linecap="round"/>
    <circle cx="330" cy="380" r="10" fill="#C9A646"/>
    <circle cx="460" cy="290" r="10" fill="#C9A646"/>
    <circle cx="600" cy="400" r="10" fill="#C9A646"/>
    <circle cx="740" cy="520" r="10" fill="#C9A646"/>
    <circle cx="870" cy="420" r="10" fill="#C9A646"/>
  </g>

  <g opacity="0.25">
    <path d="M240 200H960" stroke="white"/>
    <path d="M240 600H960" stroke="white"/>
    <path d="M240 260H960" stroke="white"/>
    <path d="M240 540H960" stroke="white"/>
  </g>
</svg>

