<svg width="1200" height="800" viewBox="0 0 1200 800" fill="none" xmlns="http://www.w3.org/2000/svg">
  <defs>
    <linearGradient id="bg" x1="180" y1="120" x2="1020" y2="720" gradientUnits="userSpaceOnUse">
      <stop stop-color="#1B4D7A"/>
      <stop offset="1" stop-color="#0F2744"/>
    </linearGradient>
  </defs>
  <rect width="1200" height="800" rx="44" fill="#0B1220"/>
  <rect x="56" y="56" width="1088" height="688" rx="40" fill="url(#bg)"/>

  <g opacity="0.7">
    <path d="M320 580C320 480 420 420 520 420H860C920 420 960 460 960 520V580C960 640 920 680 860 680H520C420 680 320 620 320 580Z" fill="white" fill-opacity="0.12"/>
    <rect x="260" y="220" width="680" height="250" rx="28" fill="white" fill-opacity="0.12" stroke="white" stroke-opacity="0.25"/>
    <circle cx="380" cy="345" r="44" fill="#C9A646" opacity="0.9"/>
    <rect x="450" y="300" width="360" height="22" rx="11" fill="white" fill-opacity="0.16"/>
    <rect x="450" y="336" width="300" height="18" rx="9" fill="white" fill-opacity="0.14"/>
    <rect x="450" y="366" width="340" height="18" rx="9" fill="white" fill-opacity="0.14"/>
  </g>

  <path d="M260 650H940" stroke="#C9A646" stroke-width="6" stroke-linecap="round" opacity="0.75"/>
</svg>

